<svg width="217" height="65" viewBox="0 0 217 65" fill="none" xmlns="http://www.w3.org/2000/svg">
<path d="M70.4874 21.6942H77.6522L72.1199 48.0862H87.7646L86.4949 54.072H63.7307L70.4874 21.6942ZM111.582 54.072H105.415L106.14 50.807H106.049C103.963 53.3767 101.228 54.6615 97.8416 54.6615C93.2767 54.6615 90.9942 52.5756 90.9942 48.4036C90.9942 48.1618 91.0093 47.8595 91.0395 47.4967C91.1 47.1037 91.1605 46.7107 91.2209 46.3177C91.3116 45.9247 91.3872 45.5619 91.4477 45.2293C91.5384 44.8666 91.6139 44.5794 91.6744 44.3677L94.5766 30.6276H101.016L98.159 44.3677C98.0986 44.5491 98.0381 44.7759 97.9776 45.048C97.9474 45.2898 97.9021 45.5468 97.8416 45.8189C97.8114 46.0909 97.7811 46.363 97.7509 46.6351C97.7509 46.877 97.7509 47.0735 97.7509 47.2246C97.7509 47.9199 98.0683 48.4943 98.7032 48.9478C99.3683 49.4013 100.079 49.628 100.835 49.628C101.802 49.628 102.648 49.4466 103.374 49.0838C104.13 48.6908 104.765 48.192 105.279 47.5874C105.823 46.9828 106.261 46.2874 106.594 45.5014C106.956 44.7154 107.228 43.9143 107.41 43.098L110.04 30.6276H116.479L111.582 54.072ZM131.595 34.8449C130.325 34.8449 129.237 35.1623 128.33 35.7972C127.453 36.432 126.727 37.2483 126.153 38.2459C125.609 39.2133 125.201 40.2714 124.929 41.4202C124.657 42.569 124.521 43.6422 124.521 44.6398C124.521 45.3654 124.596 46.0456 124.747 46.6804C124.929 47.3153 125.201 47.8746 125.564 48.3583C125.957 48.8118 126.455 49.1745 127.06 49.4466C127.665 49.7187 128.405 49.8547 129.282 49.8547C130.431 49.8547 131.444 49.5373 132.32 48.9025C133.197 48.2374 133.923 47.406 134.497 46.4084C135.102 45.4107 135.54 44.3224 135.812 43.1434C136.114 41.9644 136.265 40.8458 136.265 39.7877C136.265 38.3366 135.857 37.1576 135.041 36.2506C134.225 35.3134 133.076 34.8449 131.595 34.8449ZM137.717 62.2798H131.277L133.409 52.2128H133.318C132.623 52.9686 131.746 53.5732 130.688 54.0267C129.66 54.4499 128.33 54.6615 126.697 54.6615C125.186 54.6615 123.886 54.4046 122.797 53.8906C121.709 53.3767 120.817 52.6663 120.122 51.7593C119.427 50.8524 118.913 49.7943 118.58 48.585C118.248 47.3758 118.081 46.0909 118.081 44.7305C118.081 42.9166 118.338 41.133 118.852 39.3796C119.366 37.5959 120.137 36.0239 121.165 34.6635C122.193 33.2728 123.462 32.1543 124.974 31.3078C126.486 30.4311 128.239 29.9927 130.234 29.9927C131.867 29.9927 133.348 30.3102 134.678 30.945C136.039 31.5496 137.006 32.6682 137.581 34.3007H137.671L138.442 30.6276H144.383L137.717 62.2798ZM148.071 37.7471C148.282 36.2657 148.736 35.0414 149.431 34.074C150.126 33.0763 150.973 32.2752 151.97 31.6706C152.968 31.0659 154.087 30.6427 155.326 30.4009C156.566 30.1288 157.85 29.9927 159.181 29.9927C160.239 29.9927 161.342 30.0683 162.491 30.2195C163.64 30.3706 164.698 30.6729 165.665 31.1264C166.633 31.5496 167.419 32.1694 168.023 32.9856C168.658 33.7716 168.96 34.8297 168.93 36.1599C168.93 37.2785 168.764 38.5936 168.431 40.1051L166.345 49.5373C166.225 49.9606 166.134 50.4896 166.073 51.1245C166.043 51.7291 166.028 52.2581 166.028 52.7116C166.028 53.1046 166.104 53.5581 166.255 54.072H159.815V51.7593C158.939 52.757 157.866 53.4976 156.596 53.9813C155.326 54.4348 154.011 54.6615 152.651 54.6615C151.381 54.6615 150.262 54.4953 149.295 54.1627C148.358 53.8302 147.572 53.3918 146.937 52.8477C146.302 52.2733 145.833 51.6233 145.531 50.8977C145.229 50.1419 145.078 49.3559 145.078 48.5397C145.078 46.2723 145.849 44.4584 147.39 43.098C148.962 41.7376 151.169 40.8911 154.011 40.5586C155.523 40.3772 156.838 40.2412 157.956 40.1505C159.075 40.0598 159.997 39.9237 160.722 39.7423C161.478 39.5307 162.037 39.2435 162.4 38.8808C162.763 38.4877 162.944 37.9133 162.944 37.1576C162.944 36.5529 162.808 36.0692 162.536 35.7065C162.264 35.3437 161.917 35.0565 161.493 34.8449C161.1 34.6332 160.662 34.4972 160.178 34.4367C159.725 34.346 159.286 34.3007 158.863 34.3007C157.714 34.3007 156.687 34.5879 155.78 35.1623C154.873 35.7065 154.313 36.5681 154.102 37.7471H148.071ZM161.675 42.8259C160.858 43.3097 159.982 43.612 159.045 43.7329C158.107 43.8236 157.17 43.8992 156.233 43.9596C155.628 44.0201 155.039 44.1259 154.465 44.2771C153.89 44.398 153.376 44.5945 152.923 44.8666C152.499 45.1386 152.152 45.5165 151.88 46.0002C151.608 46.4537 151.472 47.0432 151.472 47.7688C151.472 48.6455 151.819 49.3106 152.515 49.764C153.24 50.1873 154.071 50.3989 155.009 50.3989C156.006 50.3989 156.838 50.2478 157.503 49.9454C158.198 49.6129 158.772 49.2048 159.226 48.7211C159.71 48.2071 160.088 47.6327 160.36 46.9979C160.632 46.363 160.858 45.7282 161.04 45.0933L161.675 42.8259ZM175.742 30.6276H181.909L181.184 33.8926H181.275C183.361 31.2927 186.096 29.9927 189.482 29.9927C194.047 29.9927 196.33 32.0938 196.33 36.296C196.33 36.5378 196.3 36.8553 196.239 37.2483C196.179 37.611 196.103 37.9889 196.012 38.3819C195.952 38.7749 195.876 39.1528 195.786 39.5156C195.725 39.8482 195.68 40.1202 195.65 40.3319L192.747 54.072H186.308L189.165 40.3319C189.225 39.9691 189.301 39.4854 189.392 38.8808C189.513 38.2761 189.573 37.8075 189.573 37.475C189.573 36.7797 189.241 36.2053 188.575 35.7518C187.941 35.2983 187.245 35.0716 186.489 35.0716C185.522 35.0716 184.66 35.2681 183.905 35.6611C183.179 36.0239 182.544 36.5076 182 37.1122C181.486 37.7168 181.048 38.4122 180.685 39.1982C180.352 39.9842 180.096 40.7853 179.914 41.6016L177.284 54.072H170.89L175.742 30.6276Z" fill="#F8F8F8"/>
<rect x="145" width="54" height="22" fill="#CABE96"/>
<path d="M152.707 20.0203H151.767C150.309 20.0203 149.256 19.6397 148.61 18.8785C148.169 18.3476 147.948 17.6535 147.948 16.7964C147.948 16.3934 147.999 15.9488 148.102 15.4627L149.599 8.42001H153.532L153.034 10.79H151.844L150.846 15.4627C150.782 15.7569 150.75 16.0224 150.75 16.2591C150.75 16.6365 150.833 16.9307 150.999 17.1418C151.268 17.4872 151.69 17.6599 152.266 17.6599H153.216C153.772 17.6599 154.255 17.4872 154.665 17.1418C155.08 16.7964 155.368 16.2463 155.528 15.4915L157.284 7.23984H160.028L158.272 15.4915C157.984 16.9243 157.345 18.0373 156.353 18.8305C155.362 19.6237 154.147 20.0203 152.707 20.0203ZM154.962 7.22065C154.802 7.22065 154.645 7.19506 154.492 7.14389C154.338 7.09272 154.207 7.01596 154.099 6.91361C153.99 6.81126 153.913 6.68653 153.868 6.53941C153.843 6.46265 153.83 6.3763 153.83 6.28035C153.83 6.20359 153.839 6.12043 153.859 6.03088C153.897 5.83898 153.971 5.66947 154.079 5.52235C154.188 5.37523 154.316 5.25369 154.463 5.15774C154.617 5.06179 154.78 4.98823 154.953 4.93706C155.132 4.88588 155.304 4.8603 155.471 4.8603C155.643 4.8603 155.803 4.88588 155.95 4.93706C156.097 4.98823 156.222 5.06179 156.325 5.15774C156.433 5.25369 156.51 5.37523 156.555 5.52235C156.58 5.59911 156.593 5.68546 156.593 5.78141C156.593 5.85817 156.584 5.94133 156.564 6.03088C156.494 6.38909 156.293 6.68333 155.96 6.91361C155.666 7.1183 155.333 7.22065 154.962 7.22065ZM164.01 16.2783C163.274 16.2783 162.644 16.1695 162.12 15.952C161.595 15.7281 161.18 15.4179 160.873 15.0213C160.559 14.6247 160.361 14.1546 160.278 13.6109C160.195 13.0608 160.22 12.4659 160.354 11.8262L162.091 3.68972H164.845L163.108 11.8646C162.961 12.5362 163.015 13.048 163.271 13.3998C163.521 13.7452 163.933 13.9179 164.509 13.9179C164.835 13.9179 165.088 14.033 165.267 14.2633C165.453 14.4936 165.51 14.7719 165.44 15.0981C165.369 15.4243 165.193 15.7026 164.912 15.9328C164.637 16.1631 164.336 16.2783 164.01 16.2783ZM170.228 4.8603C169.863 4.8603 169.575 4.76115 169.364 4.56286C169.185 4.39654 169.095 4.18546 169.095 3.92959C169.095 3.85283 169.105 3.76968 169.124 3.68012C169.207 3.30272 169.406 3.01168 169.719 2.80698C170.039 2.60229 170.375 2.49995 170.727 2.49995C171.085 2.49995 171.376 2.59909 171.6 2.79739C171.779 2.95731 171.868 3.1652 171.868 3.42106C171.868 3.50422 171.859 3.59057 171.84 3.68012C171.756 4.04473 171.552 4.33897 171.225 4.56286C170.906 4.76115 170.573 4.8603 170.228 4.8603ZM173.499 4.8603C173.327 4.8603 173.164 4.83471 173.01 4.78354C172.863 4.73237 172.738 4.6588 172.636 4.56286C172.534 4.46051 172.46 4.33578 172.415 4.18865C172.39 4.11189 172.377 4.02554 172.377 3.92959C172.377 3.85283 172.386 3.76968 172.406 3.68012C172.476 3.30912 172.678 3.01487 173.01 2.79739C173.317 2.59909 173.647 2.49995 173.998 2.49995C174.357 2.49995 174.648 2.59909 174.872 2.79739C175.057 2.95731 175.15 3.1588 175.15 3.40187C175.15 3.48503 175.137 3.57778 175.111 3.68012C175.073 3.87202 174.999 4.04153 174.891 4.18865C174.782 4.33578 174.651 4.46051 174.497 4.56286C174.35 4.6588 174.187 4.73237 174.008 4.78354C173.835 4.83471 173.666 4.8603 173.499 4.8603ZM169.45 16.2878H164.01L164.509 13.9275H165.2C165.034 13.4925 164.95 13.0064 164.95 12.4691C164.95 12.0597 165.002 11.6215 165.104 11.1546C165.27 10.355 165.552 9.63857 165.948 9.0053C166.351 8.37204 166.841 7.83792 167.416 7.40295C167.992 6.96159 168.635 6.62576 169.345 6.39548C170.061 6.15881 170.823 6.04047 171.628 6.04047C172.428 6.04047 173.135 6.15561 173.749 6.38589C174.369 6.60977 174.872 6.9424 175.255 7.38376C175.639 7.81873 175.895 8.35285 176.023 8.98611C176.081 9.26117 176.109 9.55541 176.109 9.86885C176.109 10.2718 176.061 10.7004 175.965 11.1546C175.786 11.9733 175.495 12.7025 175.092 13.3422C174.696 13.9819 174.213 14.5192 173.643 14.9542C173.081 15.3827 172.441 15.7122 171.724 15.9424C171.008 16.1727 170.25 16.2878 169.45 16.2878ZM169.949 13.9275C170.352 13.9275 170.733 13.8603 171.091 13.726C171.449 13.5853 171.769 13.3966 172.051 13.1599C172.332 12.9168 172.572 12.6258 172.77 12.2868C172.969 11.9413 173.109 11.5639 173.192 11.1546C173.25 10.8859 173.279 10.6332 173.279 10.3966C173.279 9.90403 173.154 9.48825 172.905 9.14923C172.527 8.65029 171.932 8.40082 171.12 8.40082C170.73 8.40082 170.356 8.46799 169.997 8.60232C169.639 8.73665 169.316 8.92854 169.028 9.17801C168.74 9.42108 168.494 9.71213 168.289 10.0511C168.091 10.3838 167.95 10.7516 167.867 11.1546C167.816 11.3912 167.791 11.6183 167.791 11.8358C167.791 12.3667 167.925 12.8049 168.193 13.1503C168.379 13.3934 168.619 13.5853 168.913 13.726C169.214 13.8603 169.559 13.9275 169.949 13.9275ZM182.106 13.9179C182.503 13.9179 182.88 13.8507 183.238 13.7164C183.603 13.5821 183.923 13.3934 184.198 13.1503C184.479 12.9072 184.719 12.6162 184.917 12.2772C185.116 11.9382 185.26 11.5639 185.349 11.1546C185.407 10.8987 185.436 10.6556 185.436 10.4254C185.436 9.90723 185.308 9.48185 185.052 9.14923C184.674 8.65029 184.083 8.40082 183.277 8.40082C182.887 8.40082 182.509 8.46799 182.145 8.60232C181.786 8.73665 181.463 8.92854 181.175 9.17801C180.894 9.42108 180.651 9.71213 180.446 10.0511C180.248 10.3838 180.107 10.7516 180.024 11.1546C179.966 11.404 179.938 11.6407 179.938 11.8646C179.938 12.0053 179.95 12.1428 179.976 12.2772C180.034 12.6162 180.155 12.9072 180.341 13.1503C180.526 13.3934 180.766 13.5821 181.06 13.7164C181.361 13.8507 181.71 13.9179 182.106 13.9179ZM188.842 16.2878C188.151 16.2815 187.559 16.1823 187.067 15.9904C186.932 16.4574 186.744 16.9019 186.501 17.3241C186.187 17.8678 185.791 18.338 185.311 18.7346C184.837 19.1311 184.287 19.4414 183.661 19.6653C183.053 19.8827 182.375 19.9947 181.626 20.0011L182.145 17.5928C182.727 17.5928 183.216 17.4168 183.613 17.065C183.971 16.758 184.223 16.323 184.371 15.7601C184.211 15.8241 184.044 15.8849 183.872 15.9424C183.162 16.1727 182.407 16.2878 181.607 16.2878C180.801 16.2878 180.088 16.1727 179.468 15.9424C178.853 15.7122 178.351 15.3795 177.961 14.9446C177.577 14.516 177.318 13.9819 177.184 13.3422C177.056 12.7025 177.078 11.9733 177.251 11.1546C177.424 10.355 177.708 9.63537 178.105 8.99571C178.508 8.36244 178.997 7.82833 179.573 7.39336C180.142 6.95199 180.785 6.61617 181.502 6.38589C182.218 6.15561 182.979 6.04047 183.785 6.04047C184.585 6.04047 185.292 6.15241 185.906 6.3763C186.526 6.60657 187.028 6.9424 187.412 7.38376C187.79 7.81873 188.042 8.35285 188.17 8.98611C188.304 9.61938 188.285 10.3422 188.113 11.1546L187.959 11.8742C187.818 12.5458 187.876 13.0544 188.132 13.3998C188.381 13.7516 188.794 13.9275 189.369 13.9275C189.696 13.9275 189.948 14.0426 190.127 14.2729C190.313 14.5032 190.371 14.7814 190.3 15.1077C190.23 15.4339 190.054 15.7122 189.772 15.9424C189.497 16.1727 189.197 16.2878 188.871 16.2878H188.842ZM188.88 16.2878L189.379 13.9275C189.961 13.9275 190.451 13.7516 190.847 13.3998C191.25 13.048 191.522 12.5362 191.663 11.8646L193.409 3.68012H196.163L194.426 11.8262C194.292 12.4659 194.065 13.0608 193.745 13.6109C193.431 14.1546 193.035 14.6247 192.555 15.0213C192.082 15.4179 191.535 15.7281 190.914 15.952C190.3 16.1695 189.622 16.2815 188.88 16.2878Z" fill="black"/>
<path d="M208.483 26V22.7181H207.193V22.1062H210.497V22.7181H209.206V26H208.483ZM211.04 26V22.1062H211.635L213.337 24.9487H213.025L214.7 22.1062H215.295L215.301 26H214.616L214.611 23.1798H214.755L213.331 25.555H213.009L211.563 23.1798H211.729V26H211.04Z" fill="#F8F8F8"/>
<path d="M56.3977 33.1915C54.7217 32.5024 52.9592 31.8987 51.12 31.3813C45.8902 29.8869 40.095 29.0635 34.0022 29.0635C27.9094 29.0635 22.1153 29.8869 16.8759 31.3813C15.0367 31.8987 13.2742 32.5013 11.5982 33.1915C11.3496 34.4267 11.2344 35.7003 11.2344 37.0123C11.2344 37.2224 11.2344 37.424 11.2536 37.6352C12.7002 36.6101 14.2707 35.9307 15.9371 35.6437C16.5025 35.5477 17.0861 35.4997 17.6803 35.4997C25.238 35.4997 31.4353 43.6981 32.116 54.1653C32.1544 54.625 32.1736 55.0944 32.1736 55.5637C33.4474 55.9082 34.6733 56.0714 35.8329 56.1098V56.1002C35.8329 55.4496 35.8521 54.8074 35.8905 54.1653C36.5797 43.6981 42.7771 35.4997 50.3262 35.4997C50.9109 35.4997 51.4848 35.5477 52.0599 35.6437C53.7263 35.9307 55.3074 36.6112 56.7434 37.6352C56.7626 37.424 56.7626 37.2235 56.7626 37.0123C56.7626 35.7003 56.6474 34.4267 56.3988 33.1915H56.3977Z" fill="#0F1314"/>
<path d="M56.4009 31.6501C54.7195 30.9664 52.9571 30.3605 51.1221 29.8421C45.8881 28.3541 40.0918 27.5232 34.0043 27.5232C27.9168 27.5232 22.1195 28.3541 16.877 29.8421C15.042 30.3616 13.2785 30.9664 11.5982 31.6501C11.3528 32.8875 11.2344 34.1674 11.2344 35.4741C11.2344 35.6821 11.2344 35.889 11.2525 36.097C12.697 35.0762 14.2696 34.3925 15.9414 34.1066C16.5047 34.0117 17.0861 33.9594 17.6771 33.9594C25.2369 33.9594 31.4332 42.1621 32.1149 52.6314C32.1608 53.2714 32.179 53.9114 32.179 54.561C32.179 55.409 32.1427 56.2485 32.0701 57.0698C32.706 57.1306 33.3514 57.1562 34.0054 57.1562C34.6594 57.1562 35.3048 57.1306 35.9407 57.0698C35.8681 56.2474 35.8319 55.409 35.8319 54.561C35.8319 53.9125 35.85 53.2714 35.8959 52.6314C36.5776 42.1621 42.7739 33.9594 50.3252 33.9594C50.9162 33.9594 51.488 34.0117 52.0609 34.1066C53.7242 34.3925 55.3042 35.0752 56.7498 36.097C56.7679 35.889 56.7679 35.6821 56.7679 35.4741C56.7679 34.1674 56.6495 32.8875 56.4041 31.6501H56.4009Z" fill="white"/>
<path d="M38.7555 39.7735C41.2648 37.2646 41.2648 33.1968 38.7555 30.6879C36.2461 28.179 32.1775 28.179 29.6682 30.6879C27.1588 33.1968 27.1588 37.2646 29.6682 39.7735C32.1775 42.2825 36.2461 42.2825 38.7555 39.7735Z" fill="black"/>
<path d="M34.0003 30.2707C37.108 30.2707 39.628 32.7902 39.628 35.8974C39.628 36.4382 39.5469 36.9608 39.405 37.4558C39.7592 36.7187 39.963 35.8963 39.963 35.0248C39.963 31.9177 37.443 29.3982 34.3353 29.3982C31.7684 29.3982 29.608 31.1177 28.9316 33.4665C29.8395 31.5785 31.7652 30.2718 34.0003 30.2718V30.2707Z" fill="#404040"/>
<path opacity="0.4" d="M38.3967 35.025C38.3967 37.2682 36.5777 39.0869 34.3341 39.0869C32.0905 39.0869 30.2715 37.2682 30.2715 35.025C30.2715 32.7818 32.0905 30.9631 34.3341 30.9631C36.5777 30.9631 38.3967 32.7818 38.3967 35.025Z" fill="black"/>
<path d="M37.9847 35.0251C37.9847 37.0411 36.3503 38.6753 34.3339 38.6753C32.3175 38.6753 30.6831 37.0411 30.6831 35.0251C30.6831 33.0091 32.3175 31.375 34.3339 31.375C36.3503 31.375 37.9847 33.0091 37.9847 35.0251Z" fill="white"/>
<g style="mix-blend-mode:multiply" opacity="0.5">
<path d="M35.9398 57.0698C35.8673 56.2474 35.831 55.409 35.831 54.561C35.831 54.4714 35.8395 54.385 35.8395 54.2954C35.3776 54.3786 34.9135 54.4586 34.4409 54.5077C33.7794 54.5749 33.119 54.6133 32.449 54.6133C32.3584 54.6133 32.2687 54.6069 32.1781 54.6058C32.177 55.4389 32.1418 56.2634 32.0703 57.0709C32.7062 57.1317 33.3516 57.1573 34.0056 57.1573C34.6596 57.1573 35.305 57.1317 35.9409 57.0709L35.9398 57.0698Z" fill="#3A3A3A"/>
<path d="M13.366 34.8979C13.3766 34.5982 13.3777 34.2974 13.4054 34.003C13.4897 32.8979 13.6775 31.8174 13.9474 30.771C13.1494 31.0494 12.3631 31.3385 11.5982 31.6499C11.3528 32.8873 11.2344 34.1673 11.2344 35.4739C11.2344 35.6819 11.2344 35.8889 11.2525 36.0969C11.9289 35.619 12.6362 35.2222 13.366 34.8979Z" fill="#3A3A3A"/>
</g>
<path d="M57.616 29.7674C55.6328 18.5333 45.8145 10 34.0043 10C22.1942 10 12.3759 18.5333 10.383 29.7674C10.1248 31.137 10 32.5546 10 34C10 34.2293 10 34.4597 10.0192 34.689C10.3542 46.9375 19.8855 56.8981 31.9645 57.9039C32.6345 57.9711 33.3151 57.9999 34.0043 57.9999C34.6935 57.9999 35.3742 57.9711 36.0442 57.9039C48.1231 56.8981 57.6438 46.9386 57.9798 34.689C57.9991 34.4597 57.999 34.2293 57.999 34C57.999 32.5536 57.8742 31.136 57.616 29.7674ZM53.1043 34C53.1043 43.8837 45.6043 51.9946 35.9962 52.9909C35.3347 53.0581 34.6743 53.0965 34.0043 53.0965C33.3343 53.0965 32.6633 53.0581 32.0114 52.9909C22.3948 51.9946 14.8947 43.8826 14.8947 34C14.8947 33.4922 14.914 32.9845 14.962 32.4864C15.0868 30.849 15.4218 29.2586 15.9488 27.7653C18.5253 20.2763 25.6327 14.9035 34.0043 14.9035C42.376 14.9035 49.4738 20.2763 52.0502 27.7653C52.5773 29.2597 52.9123 30.849 53.0371 32.4864C53.0851 32.9845 53.1043 33.4922 53.1043 34Z" fill="white"/>
<g style="mix-blend-mode:multiply" opacity="0.3">
<path d="M53.551 32.4041C53.551 31.8964 53.5318 31.3887 53.4838 30.8905C53.359 29.2532 53.024 27.6628 52.4969 26.1695C49.9205 18.6804 42.8131 13.3076 34.451 13.3076C26.089 13.3076 18.972 18.6793 16.3944 26.1695C16.1736 26.7967 15.9944 27.4431 15.8418 28.1001C15.8781 27.9892 15.909 27.8751 15.9474 27.7652C18.5239 20.2761 25.6313 14.9033 34.0029 14.9033C42.3746 14.9033 49.4724 20.2761 52.0489 27.7652C52.5759 29.2596 52.9109 30.8489 53.0357 32.4863C53.0837 32.9844 53.1029 33.4921 53.1029 33.9999C53.1029 35.5049 52.9098 36.962 52.5812 38.3668C53.1989 36.4894 53.5499 34.4895 53.5499 32.4041H53.551Z" fill="#BBBBBB"/>
<path d="M36.4912 56.3082C35.8212 56.3754 35.1405 56.4042 34.4513 56.4042C33.7621 56.4042 33.0815 56.3754 32.4115 56.3082C20.3325 55.3024 10.8012 45.3419 10.4662 33.0933C10.447 32.8629 10.447 32.6336 10.447 32.4043C10.447 30.9579 10.5718 29.5403 10.83 28.1717C10.9154 27.6917 11.0338 27.2235 11.1469 26.7542C10.8364 27.7365 10.5654 28.736 10.383 29.7675C10.1248 31.1371 10 32.5547 10 34C10 34.2293 10 34.4597 10.0192 34.6891C10.3542 46.9376 19.8855 56.8981 31.9645 57.904C32.6345 57.9712 33.3151 58 34.0043 58C34.6935 58 35.3742 57.9712 36.0442 57.904C46.3543 57.0453 54.7803 49.6533 57.2405 39.8923C54.3034 48.8565 46.2327 55.4965 36.4901 56.3082H36.4912Z" fill="#BBBBBB"/>
</g>
<g opacity="0.2">
<path d="M15.9058 27.8989C15.7927 28.1816 15.6743 28.4611 15.5751 28.7501C15.048 30.2445 14.713 31.8339 14.5882 33.4712C14.5402 33.9693 14.521 34.477 14.521 34.9848C14.521 44.8685 22.021 52.9794 31.6387 53.9757C32.2895 54.0429 32.9606 54.0813 33.6316 54.0813C34.3027 54.0813 34.9631 54.0429 35.6235 53.9757C43.0616 53.2045 49.2184 48.1602 51.6285 41.34C48.9933 47.6578 43.0723 52.2583 35.9969 52.9922C35.3354 53.0594 34.675 53.0978 34.005 53.0978C33.3351 53.0978 32.664 53.0594 32.0121 52.9922C22.3955 51.9959 14.8955 43.884 14.8955 34.0013C14.8955 33.4936 14.9147 32.9859 14.9627 32.4877C15.0832 30.8984 15.4065 29.356 15.9068 27.9L15.9058 27.8989Z" fill="white"/>
<path d="M57.6158 29.7674C55.6326 18.5333 45.8143 10 34.0041 10C23.5222 10 14.6236 16.7275 11.3579 26.0917C14.8892 17.2459 23.5222 10.9845 33.6318 10.9845C45.4419 10.9845 55.2602 19.5179 57.2435 30.752C57.5017 32.1216 57.6265 33.5392 57.6265 34.9845C57.6265 35.2149 57.6265 35.4442 57.6073 35.6746C57.5326 38.4 56.9811 41.0026 56.07 43.4282C57.2211 40.7327 57.8954 37.7856 57.9807 34.6912C57.9999 34.4618 57.9999 34.2314 57.9999 34.0021C57.9999 32.5557 57.8751 31.1381 57.6169 29.7696L57.6158 29.7674Z" fill="white"/>
</g>
<g opacity="0.3">
<path d="M53.1471 33.8624C53.1471 33.3546 53.1279 32.8469 53.0799 32.3488C52.9551 30.7114 52.6201 29.121 52.0931 27.6277C49.5166 20.1387 42.4092 14.7659 34.0472 14.7659C25.6851 14.7659 18.5681 20.1387 15.9906 27.6277C15.8572 28.0053 15.7367 28.3893 15.6289 28.7776C15.7271 28.4362 15.8316 28.0981 15.9479 27.7653C18.5244 20.2763 25.6318 14.9035 34.0034 14.9035C42.3751 14.9035 49.4729 20.2763 52.0493 27.7653C52.5764 29.2597 52.9114 30.849 53.0362 32.4864C53.0842 32.9845 53.1034 33.4922 53.1034 34C53.1034 35.8378 52.842 37.6128 52.3587 39.2928C52.8687 37.5712 53.1461 35.7493 53.1461 33.8613L53.1471 33.8624Z" fill="#242424"/>
<path d="M36.0868 57.7664C35.4168 57.8336 34.7362 57.8624 34.047 57.8624C33.3578 57.8624 32.6772 57.8336 32.0072 57.7664C19.9282 56.7606 10.3969 46.8011 10.0619 34.5515C10.0427 34.3211 10.0427 34.0918 10.0427 33.8625C10.0427 32.4161 10.1675 30.9985 10.4257 29.63C10.5494 28.9324 10.7041 28.2465 10.8866 27.5713C10.6871 28.2913 10.5153 29.022 10.383 29.7676C10.1248 31.1372 10 32.5547 10 34.0001C10 34.2294 10 34.4598 10.0192 34.6891C10.3542 46.9377 19.8855 56.8982 31.9645 57.904C32.6345 57.9712 33.3151 58 34.0043 58C34.6935 58 35.3742 57.9712 36.0442 57.904C45.887 57.0848 54.0282 50.3179 56.8874 41.2129C53.9898 50.2486 45.8795 56.9515 36.0868 57.7664Z" fill="#242424"/>
</g>
</svg>
