<svg width="217" height="65" viewBox="0 0 217 65" fill="none" xmlns="http://www.w3.org/2000/svg">
<path d="M70.4875 21.6942H77.6524L72.12 48.0862H87.7647L86.495 54.072H63.7308L70.4875 21.6942ZM111.582 54.072H105.415L106.14 50.807H106.05C103.964 53.3767 101.228 54.6615 97.8417 54.6615C93.2768 54.6615 90.9943 52.5756 90.9943 48.4036C90.9943 48.1618 91.0094 47.8595 91.0397 47.4967C91.1001 47.1037 91.1606 46.7107 91.221 46.3177C91.3117 45.9247 91.3873 45.5619 91.4478 45.2293C91.5385 44.8666 91.6141 44.5794 91.6745 44.3677L94.5767 30.6276H101.016L98.1591 44.3677C98.0987 44.5491 98.0382 44.7759 97.9778 45.048C97.9475 45.2898 97.9022 45.5468 97.8417 45.8189C97.8115 46.0909 97.7813 46.363 97.751 46.6351C97.751 46.877 97.751 47.0735 97.751 47.2246C97.751 47.9199 98.0685 48.4943 98.7033 48.9478C99.3684 49.4013 100.079 49.628 100.835 49.628C101.802 49.628 102.649 49.4466 103.374 49.0838C104.13 48.6908 104.765 48.192 105.279 47.5874C105.823 46.9828 106.261 46.2874 106.594 45.5014C106.956 44.7154 107.229 43.9143 107.41 43.098L110.04 30.6276H116.479L111.582 54.072ZM131.595 34.8449C130.325 34.8449 129.237 35.1623 128.33 35.7972C127.453 36.432 126.728 37.2483 126.153 38.2459C125.609 39.2133 125.201 40.2714 124.929 41.4202C124.657 42.569 124.521 43.6422 124.521 44.6398C124.521 45.3654 124.596 46.0456 124.747 46.6804C124.929 47.3153 125.201 47.8746 125.564 48.3583C125.957 48.8118 126.455 49.1745 127.06 49.4466C127.665 49.7187 128.405 49.8547 129.282 49.8547C130.431 49.8547 131.444 49.5373 132.32 48.9025C133.197 48.2374 133.923 47.406 134.497 46.4084C135.102 45.4107 135.54 44.3224 135.812 43.1434C136.114 41.9644 136.266 40.8458 136.266 39.7877C136.266 38.3366 135.857 37.1576 135.041 36.2506C134.225 35.3134 133.076 34.8449 131.595 34.8449ZM137.717 62.2798H131.277L133.409 52.2128H133.318C132.623 52.9686 131.746 53.5732 130.688 54.0267C129.66 54.4499 128.33 54.6615 126.697 54.6615C125.186 54.6615 123.886 54.4046 122.797 53.8906C121.709 53.3767 120.817 52.6663 120.122 51.7593C119.427 50.8524 118.913 49.7943 118.58 48.585C118.248 47.3758 118.081 46.0909 118.081 44.7305C118.081 42.9166 118.338 41.133 118.852 39.3796C119.366 37.5959 120.137 36.0239 121.165 34.6635C122.193 33.2728 123.463 32.1543 124.974 31.3078C126.486 30.4311 128.239 29.9927 130.234 29.9927C131.867 29.9927 133.348 30.3102 134.678 30.945C136.039 31.5496 137.006 32.6682 137.581 34.3007H137.671L138.442 30.6276H144.383L137.717 62.2798ZM148.071 37.7471C148.282 36.2657 148.736 35.0414 149.431 34.074C150.126 33.0763 150.973 32.2752 151.971 31.6706C152.968 31.0659 154.087 30.6427 155.326 30.4009C156.566 30.1288 157.851 29.9927 159.181 29.9927C160.239 29.9927 161.342 30.0683 162.491 30.2195C163.64 30.3706 164.698 30.6729 165.665 31.1264C166.633 31.5496 167.419 32.1694 168.023 32.9856C168.658 33.7716 168.961 34.8297 168.93 36.1599C168.93 37.2785 168.764 38.5936 168.432 40.1051L166.346 49.5373C166.225 49.9606 166.134 50.4896 166.073 51.1245C166.043 51.7291 166.028 52.2581 166.028 52.7116C166.028 53.1046 166.104 53.5581 166.255 54.072H159.816V51.7593C158.939 52.757 157.866 53.4976 156.596 53.9813C155.326 54.4348 154.011 54.6615 152.651 54.6615C151.381 54.6615 150.262 54.4953 149.295 54.1627C148.358 53.8302 147.572 53.3918 146.937 52.8477C146.302 52.2733 145.834 51.6233 145.531 50.8977C145.229 50.1419 145.078 49.3559 145.078 48.5397C145.078 46.2723 145.849 44.4584 147.39 43.098C148.963 41.7376 151.169 40.8911 154.011 40.5586C155.523 40.3772 156.838 40.2412 157.956 40.1505C159.075 40.0598 159.997 39.9237 160.723 39.7423C161.478 39.5307 162.038 39.2435 162.4 38.8808C162.763 38.4877 162.945 37.9133 162.945 37.1576C162.945 36.5529 162.808 36.0692 162.536 35.7065C162.264 35.3437 161.917 35.0565 161.493 34.8449C161.1 34.6332 160.662 34.4972 160.178 34.4367C159.725 34.346 159.287 34.3007 158.863 34.3007C157.714 34.3007 156.687 34.5879 155.78 35.1623C154.873 35.7065 154.313 36.5681 154.102 37.7471H148.071ZM161.675 42.8259C160.859 43.3097 159.982 43.612 159.045 43.7329C158.108 43.8236 157.17 43.8992 156.233 43.9596C155.629 44.0201 155.039 44.1259 154.465 44.2771C153.89 44.398 153.376 44.5945 152.923 44.8666C152.5 45.1386 152.152 45.5165 151.88 46.0002C151.608 46.4537 151.472 47.0432 151.472 47.7688C151.472 48.6455 151.819 49.3106 152.515 49.764C153.24 50.1873 154.072 50.3989 155.009 50.3989C156.006 50.3989 156.838 50.2478 157.503 49.9454C158.198 49.6129 158.773 49.2048 159.226 48.7211C159.71 48.2071 160.088 47.6327 160.36 46.9979C160.632 46.363 160.859 45.7282 161.04 45.0933L161.675 42.8259ZM175.742 30.6276H181.91L181.184 33.8926H181.275C183.361 31.2927 186.097 29.9927 189.482 29.9927C194.047 29.9927 196.33 32.0938 196.33 36.296C196.33 36.5378 196.3 36.8553 196.239 37.2483C196.179 37.611 196.103 37.9889 196.012 38.3819C195.952 38.7749 195.876 39.1528 195.786 39.5156C195.725 39.8482 195.68 40.1202 195.65 40.3319L192.747 54.072H186.308L189.165 40.3319C189.226 39.9691 189.301 39.4854 189.392 38.8808C189.513 38.2761 189.573 37.8075 189.573 37.475C189.573 36.7797 189.241 36.2053 188.576 35.7518C187.941 35.2983 187.245 35.0716 186.49 35.0716C185.522 35.0716 184.661 35.2681 183.905 35.6611C183.179 36.0239 182.544 36.5076 182 37.1122C181.486 37.7168 181.048 38.4122 180.685 39.1982C180.353 39.9842 180.096 40.7853 179.914 41.6016L177.284 54.072H170.89L175.742 30.6276Z" fill="#F8F8F8"/>
<path d="M143.519 3.02313H202.55L199.412 24.1851H139.064L143.519 3.02313Z" fill="#CABE96"/>
<path d="M152.637 23.0203H151.697C150.238 23.0203 149.186 22.6397 148.54 21.8785C148.098 21.3476 147.878 20.6535 147.878 19.7964C147.878 19.3934 147.929 18.9488 148.031 18.4627L149.528 11.42H153.462L152.963 13.79H151.773L150.775 18.4627C150.711 18.7569 150.679 19.0224 150.679 19.2591C150.679 19.6365 150.763 19.9307 150.929 20.1418C151.198 20.4872 151.62 20.6599 152.195 20.6599H153.145C153.702 20.6599 154.185 20.4872 154.594 20.1418C155.01 19.7964 155.298 19.2463 155.458 18.4915L157.214 10.2398H159.958L158.202 18.4915C157.914 19.9243 157.274 21.0373 156.283 21.8305C155.291 22.6237 154.076 23.0203 152.637 23.0203ZM154.892 10.2206C154.732 10.2206 154.575 10.1951 154.422 10.1439C154.268 10.0927 154.137 10.016 154.028 9.91361C153.919 9.81126 153.843 9.68653 153.798 9.53941C153.772 9.46265 153.759 9.3763 153.759 9.28035C153.759 9.20359 153.769 9.12043 153.788 9.03088C153.827 8.83898 153.9 8.66947 154.009 8.52235C154.118 8.37523 154.246 8.25369 154.393 8.15774C154.546 8.06179 154.709 7.98823 154.882 7.93706C155.061 7.88588 155.234 7.8603 155.4 7.8603C155.573 7.8603 155.733 7.88588 155.88 7.93706C156.027 7.98823 156.152 8.06179 156.254 8.15774C156.363 8.25369 156.44 8.37523 156.484 8.52235C156.51 8.59911 156.523 8.68546 156.523 8.78141C156.523 8.85817 156.513 8.94133 156.494 9.03088C156.424 9.38909 156.222 9.68333 155.89 9.91361C155.595 10.1183 155.263 10.2206 154.892 10.2206ZM163.94 19.2783C163.204 19.2783 162.574 19.1695 162.049 18.952C161.525 18.7281 161.109 18.4179 160.802 18.0213C160.489 17.6247 160.29 17.1546 160.207 16.6109C160.124 16.0608 160.15 15.4659 160.284 14.8262L162.021 6.68972H164.774L163.038 14.8646C162.891 15.5362 162.945 16.048 163.201 16.3998C163.45 16.7452 163.863 16.9179 164.439 16.9179C164.765 16.9179 165.017 17.033 165.197 17.2633C165.382 17.4936 165.44 17.7719 165.369 18.0981C165.299 18.4243 165.123 18.7026 164.842 18.9328C164.567 19.1631 164.266 19.2783 163.94 19.2783ZM170.157 7.8603C169.793 7.8603 169.505 7.76115 169.294 7.56286C169.115 7.39654 169.025 7.18546 169.025 6.92959C169.025 6.85283 169.035 6.76968 169.054 6.68012C169.137 6.30272 169.335 6.01168 169.649 5.80698C169.968 5.60229 170.304 5.49995 170.656 5.49995C171.014 5.49995 171.305 5.59909 171.529 5.79739C171.708 5.95731 171.798 6.1652 171.798 6.42106C171.798 6.50422 171.788 6.59057 171.769 6.68012C171.686 7.04473 171.481 7.33897 171.155 7.56286C170.835 7.76115 170.503 7.8603 170.157 7.8603ZM173.429 7.8603C173.256 7.8603 173.093 7.83471 172.94 7.78354C172.793 7.73237 172.668 7.6588 172.566 7.56286C172.463 7.46051 172.39 7.33578 172.345 7.18865C172.319 7.11189 172.306 7.02554 172.306 6.92959C172.306 6.85283 172.316 6.76968 172.335 6.68012C172.406 6.30912 172.607 6.01487 172.94 5.79739C173.247 5.59909 173.576 5.49995 173.928 5.49995C174.286 5.49995 174.577 5.59909 174.801 5.79739C174.987 5.95731 175.079 6.1588 175.079 6.40187C175.079 6.48503 175.067 6.57778 175.041 6.68012C175.003 6.87202 174.929 7.04153 174.82 7.18865C174.712 7.33578 174.58 7.46051 174.427 7.56286C174.28 7.6588 174.117 7.73237 173.938 7.78354C173.765 7.83471 173.595 7.8603 173.429 7.8603ZM169.38 19.2878H163.94L164.439 16.9275H165.129C164.963 16.4925 164.88 16.0064 164.88 15.4691C164.88 15.0597 164.931 14.6215 165.033 14.1546C165.2 13.355 165.481 12.6386 165.878 12.0053C166.281 11.372 166.77 10.8379 167.346 10.403C167.922 9.96159 168.564 9.62576 169.274 9.39548C169.991 9.15881 170.752 9.04047 171.558 9.04047C172.358 9.04047 173.064 9.15561 173.679 9.38589C174.299 9.60977 174.801 9.9424 175.185 10.3838C175.569 10.8187 175.825 11.3528 175.953 11.9861C176.01 12.2612 176.039 12.5554 176.039 12.8688C176.039 13.2718 175.991 13.7004 175.895 14.1546C175.716 14.9733 175.425 15.7025 175.022 16.3422C174.625 16.9819 174.142 17.5192 173.573 17.9542C173.01 18.3827 172.37 18.7122 171.654 18.9424C170.938 19.1727 170.18 19.2878 169.38 19.2878ZM169.879 16.9275C170.282 16.9275 170.663 16.8603 171.021 16.726C171.379 16.5853 171.699 16.3966 171.98 16.1599C172.262 15.9168 172.502 15.6258 172.7 15.2868C172.898 14.9413 173.039 14.5639 173.122 14.1546C173.18 13.8859 173.208 13.6332 173.208 13.3966C173.208 12.904 173.084 12.4882 172.834 12.1492C172.457 11.6503 171.862 11.4008 171.05 11.4008C170.659 11.4008 170.285 11.468 169.927 11.6023C169.569 11.7366 169.246 11.9285 168.958 12.178C168.67 12.4211 168.424 12.7121 168.219 13.0511C168.021 13.3838 167.88 13.7516 167.797 14.1546C167.746 14.3912 167.72 14.6183 167.72 14.8358C167.72 15.3667 167.854 15.8049 168.123 16.1503C168.309 16.3934 168.548 16.5853 168.843 16.726C169.143 16.8603 169.489 16.9275 169.879 16.9275ZM182.036 16.9179C182.432 16.9179 182.81 16.8507 183.168 16.7164C183.532 16.5821 183.852 16.3934 184.127 16.1503C184.409 15.9072 184.649 15.6162 184.847 15.2772C185.045 14.9382 185.189 14.5639 185.279 14.1546C185.336 13.8987 185.365 13.6556 185.365 13.4254C185.365 12.9072 185.237 12.4819 184.981 12.1492C184.604 11.6503 184.012 11.4008 183.206 11.4008C182.816 11.4008 182.439 11.468 182.074 11.6023C181.716 11.7366 181.393 11.9285 181.105 12.178C180.824 12.4211 180.58 12.7121 180.376 13.0511C180.177 13.3838 180.037 13.7516 179.954 14.1546C179.896 14.404 179.867 14.6407 179.867 14.8646C179.867 15.0053 179.88 15.1428 179.906 15.2772C179.963 15.6162 180.085 15.9072 180.27 16.1503C180.456 16.3934 180.696 16.5821 180.99 16.7164C181.29 16.8507 181.639 16.9179 182.036 16.9179ZM188.771 19.2878C188.08 19.2815 187.489 19.1823 186.996 18.9904C186.862 19.4574 186.673 19.9019 186.43 20.3241C186.117 20.8678 185.72 21.338 185.24 21.7346C184.767 22.1311 184.217 22.4414 183.59 22.6653C182.982 22.8827 182.304 22.9947 181.556 23.0011L182.074 20.5928C182.656 20.5928 183.145 20.4168 183.542 20.065C183.9 19.758 184.153 19.323 184.3 18.7601C184.14 18.8241 183.974 18.8849 183.801 18.9424C183.091 19.1727 182.336 19.2878 181.537 19.2878C180.731 19.2878 180.018 19.1727 179.397 18.9424C178.783 18.7122 178.281 18.3795 177.891 17.9446C177.507 17.516 177.248 16.9819 177.113 16.3422C176.986 15.7025 177.008 14.9733 177.181 14.1546C177.353 13.355 177.638 12.6354 178.035 11.9957C178.438 11.3624 178.927 10.8283 179.503 10.3934C180.072 9.95199 180.715 9.61617 181.431 9.38589C182.148 9.15561 182.909 9.04047 183.715 9.04047C184.514 9.04047 185.221 9.15241 185.835 9.3763C186.456 9.60657 186.958 9.9424 187.342 10.3838C187.719 10.8187 187.972 11.3528 188.1 11.9861C188.234 12.6194 188.215 13.3422 188.042 14.1546L187.889 14.8742C187.748 15.5458 187.805 16.0544 188.061 16.3998C188.311 16.7516 188.723 16.9275 189.299 16.9275C189.625 16.9275 189.878 17.0426 190.057 17.2729C190.243 17.5032 190.3 17.7814 190.23 18.1077C190.159 18.4339 189.983 18.7122 189.702 18.9424C189.427 19.1727 189.126 19.2878 188.8 19.2878H188.771ZM188.81 19.2878L189.309 16.9275C189.891 16.9275 190.38 16.7516 190.777 16.3998C191.18 16.048 191.452 15.5362 191.592 14.8646L193.339 6.68012H196.092L194.356 14.8262C194.221 15.4659 193.994 16.0608 193.674 16.6109C193.361 17.1546 192.964 17.6247 192.485 18.0213C192.011 18.4179 191.464 18.7281 190.844 18.952C190.23 19.1695 189.552 19.2815 188.81 19.2878Z" fill="black"/>
<path d="M208.571 29.1877V25.9058H207.281V25.2939H210.585V25.9058H209.294V29.1877H208.571ZM211.128 29.1877V25.2939H211.723L213.425 28.1364H213.113L214.788 25.2939H215.383L215.388 29.1877H214.704L214.699 26.3675H214.843L213.419 28.7427H213.097L211.65 26.3675H211.817V29.1877H211.128Z" fill="#F8F8F8"/>
<path d="M33.5795 56.7404C33.0115 58.4628 29.2717 58.7968 25.2239 57.4895C21.1761 56.1822 18.2786 54.0209 18.8465 52.2986C19.4145 50.5762 22.3601 48.0952 27.7508 49.7985C31.8082 51.0819 34.1474 55.0133 33.5795 56.7404Z" fill="#242424"/>
<g style="mix-blend-mode:multiply" opacity="0.5">
<path d="M29.2766 52.9617C31.1296 53.5485 32.6217 54.6888 33.642 55.915C33.4592 53.9827 31.2451 50.9053 27.746 49.8032C22.3505 48.0999 19.4097 50.5809 18.8417 52.3033C18.5433 53.2098 19.2075 54.2308 20.483 55.1898C21.2531 53.496 24.1602 51.3443 29.2766 52.9617Z" fill="#242424"/>
</g>
<path d="M44.346 40.3087L28.7226 45.9338L23.2935 41.3584L40.4714 36.3392C40.4714 36.3392 43.8839 36.4155 44.3508 40.3087H44.346Z" fill="#242424"/>
<g style="mix-blend-mode:multiply" opacity="0.5">
<path d="M40.4667 36.3344L23.2887 41.3536L25.9118 43.5626C33.3144 39.9604 37.6703 37.7514 44.346 40.304C43.8792 36.4107 40.4667 36.3344 40.4667 36.3344Z" fill="#242424"/>
</g>
<path d="M8.6377 26.3676L30.3448 31.9498L41.3235 28.2141C41.3235 28.2141 30.1956 22.8418 20.4876 22.1405C10.7843 21.4343 8.6377 26.3724 8.6377 26.3724V26.3676Z" fill="#242424"/>
<g style="mix-blend-mode:multiply" opacity="0.5">
<path d="M24.6509 22.6891L12.209 23.2855C9.42704 24.5594 8.6377 26.3677 8.6377 26.3677L13.316 27.57C17.0221 26.6062 25.2381 25.3466 33.8199 29.8506C34.4937 29.9651 35.1146 30.0557 35.6922 30.1321L41.3235 28.2141C41.3235 28.2141 33.1172 24.2588 24.6557 22.6891H24.6509Z" fill="#242424"/>
</g>
<path d="M14.2739 14.9838L32.7803 19.4113L57.4427 11.7442L57.0047 7.80327L53.5489 4.88336L14.2739 14.9838Z" fill="#242424"/>
<g style="mix-blend-mode:multiply" opacity="0.5">
<path d="M14.2739 14.9838L18.8416 16.0764C29.7577 12.4265 43.9949 11.3148 51.7536 13.5143L57.4427 11.7442L57.0047 7.80332L55.2912 6.3529L49.7995 5.84717L14.2739 14.9838Z" fill="#242424"/>
</g>
<path d="M27.7555 1.07613C12.1948 2.7651 -0.227858 5.84722 0.00317086 7.96082L1.09575 17.8656C0.864717 15.752 13.2825 12.6699 28.8433 10.9809C44.3993 9.29195 57.2021 9.63547 57.438 11.7443L56.3454 1.8395C56.1096 -0.27409 43.3115 -0.617609 27.7507 1.07613H27.7555Z" fill="#F8F8F8"/>
<path d="M30.2197 16.1145C19.6501 14.1917 10.7555 14.4637 10.3849 16.5534L8.6377 26.3676C9.0083 24.2731 17.8644 24.2444 28.4725 25.9286C42.8733 28.214 47.0559 33.0853 47.0559 33.0853L48.8031 23.2759C48.8031 23.2759 45.1692 18.8388 30.2197 16.1193V16.1145Z" fill="#F8F8F8"/>
<path d="M24.8628 56.4016C24.5885 56.4446 24.3093 56.5018 24.035 56.5877C20.4492 57.6803 19.7946 60.1374 20.146 61.2872C20.4348 62.2319 22.1001 62.4609 24.1842 62.0649L24.8628 56.4016Z" fill="#242424"/>
<g style="mix-blend-mode:multiply" opacity="0.5">
<path d="M22.5477 61.2872C22.2637 60.3473 22.6488 58.5391 24.7569 57.3081L24.8676 56.4016C24.5932 56.4446 24.3141 56.5018 24.0397 56.5877C20.454 57.6803 19.7994 60.1374 20.1508 61.2872C20.4155 62.1603 21.8642 62.418 23.7317 62.1412C23.1108 61.9981 22.6873 61.7214 22.5525 61.2872H22.5477Z" fill="#242424"/>
</g>
<path d="M30.3929 41.4442C26.3403 40.1704 22.5283 40.7763 21.8786 42.804L18.8367 52.2985C19.4864 50.2708 23.2936 49.6648 27.3511 50.9387C31.4037 52.2126 34.1616 54.8892 33.5166 56.9121L36.5537 47.4129C37.2035 45.3852 34.4408 42.7134 30.3881 41.4395L30.3929 41.4442Z" fill="#F8F8F8"/>
<path d="M22.2879 51.0484C19.5974 51.8738 17.754 53.6344 18.1727 54.9798L20.1413 61.2872C19.7225 59.9418 21.5611 58.1812 24.2565 57.3558C26.947 56.5304 29.4691 56.9503 29.8926 58.2957L27.9241 51.9884C27.5053 50.6429 24.9784 50.223 22.2879 51.0484Z" fill="#F8F8F8"/>
<g style="mix-blend-mode:multiply" opacity="0.5">
<path d="M28.848 10.9809C44.404 9.29188 57.2068 9.6354 57.4427 11.7442L56.8218 6.11434C41.8386 9.32051 22.769 10.9809 8.29602 4.27747C3.0738 5.55135 -0.112477 6.88248 0.0030378 7.96075L1.09561 17.8655C0.864584 15.7519 13.2824 12.6698 28.8432 10.9809H28.848Z" fill="#F8F8F8"/>
</g>
<g style="mix-blend-mode:multiply" opacity="0.5">
<path d="M19.0099 14.8455C14.0043 14.6832 10.6111 15.2796 10.3849 16.5535L8.6377 26.3676C9.0083 24.2731 17.8644 24.2445 28.4725 25.9287C42.8733 28.2141 47.0559 33.0853 47.0559 33.0853L47.8549 28.6053C36.1879 26.6539 25.3632 22.4697 19.0099 14.8455Z" fill="#F8F8F8"/>
</g>
<path d="M28.9537 28.7436C21.657 29.8887 16.016 32.5223 16.353 34.6216L17.9268 44.4596C17.5899 42.3603 23.2309 39.7267 30.5276 38.5816C37.8242 37.4366 44.0091 38.2047 44.346 40.304L42.7721 30.466C42.4352 28.3667 36.2503 27.5938 28.9537 28.7436Z" fill="#F8F8F8"/>
<g style="mix-blend-mode:multiply" opacity="0.5">
<path d="M16.724 36.9403L17.9273 44.4643C17.5904 42.3651 23.2313 39.7314 30.528 38.5863C37.8247 37.4413 44.0095 38.2094 44.3464 40.3087L42.7725 30.4707C42.6474 29.6739 41.68 29.0728 40.1301 28.6911C37.1075 34.3305 29.0744 37.5224 16.724 36.9451V36.9403Z" fill="#F8F8F8"/>
</g>
<g style="mix-blend-mode:multiply" opacity="0.5">
<path d="M35.3745 51.1153C30.2293 50.2422 26.0226 46.9358 24.083 41.0674C22.9519 41.387 22.1481 41.9787 21.8786 42.8088L18.8367 52.3033C19.4864 50.2756 23.2936 49.6697 27.3511 50.9435C31.4037 52.2174 34.1616 54.894 33.5166 56.917L35.3745 51.1105V51.1153Z" fill="#F8F8F8"/>
</g>
<g style="mix-blend-mode:multiply" opacity="0.5">
<path d="M24.2612 57.3558C26.9517 56.5304 29.4738 56.9503 29.8973 58.2957L28.7181 54.5123C26.1479 55.6287 22.7306 56.6354 18.1293 54.6506C18.1341 54.7651 18.1485 54.8749 18.1822 54.9798L20.1508 61.2872C19.732 59.9418 21.5706 58.1812 24.266 57.3558H24.2612Z" fill="#F8F8F8"/>
</g>
</svg>
